<svg width="440" height="357" viewBox="0 0 440 357" fill="none" xmlns="http://www.w3.org/2000/svg">
<g clip-path="url(#clip0_102_38)" filter="url(#filter0_dd_102_38)">
<g style="mix-blend-mode:multiply">
<path d="M129.141 123.929L91.8442 145.461L117.233 160.128L115.953 160.679L115.236 167.557L129.141 167.007L166.424 145.461L129.141 123.929Z" fill="#F0E6FE"/>
</g>
<path d="M115.223 167.557L81.9344 148.318V109.852L115.223 129.091V167.557Z" fill="#96A9CF"/>
<path d="M103.29 160.653L93.8672 155.209V116.756L103.29 122.187V160.653Z" fill="#788BB1"/>
<path d="M199.547 118.844L115.223 167.557V129.091L199.547 80.3779V118.844Z" fill="#8C9FC5"/>
<path d="M162.097 140.479L152.686 145.923V107.457L162.097 102.013V140.479Z" fill="#6E81A7"/>
<path d="M199.534 80.3779L115.223 129.079L81.9216 109.852L166.245 61.1384L199.534 80.3779Z" fill="#A0B3D9"/>
<path d="M162.084 102.013L152.673 107.444L119.372 88.2171L128.795 82.7732L162.084 102.013Z" fill="#8295BB"/>
<path d="M103.367 122.136L93.944 116.692L178.101 68.0939L187.511 73.525L103.367 122.136Z" fill="#8295BB"/>
<path d="M249.826 313.916L163.876 264.28C162.599 263.616 161.163 263.319 159.728 263.422H151.354L152.392 266.265L105.224 293.459C102.663 294.945 102.369 297.2 104.596 298.48L189.304 347.412L186.461 349H194.425C196.106 349.005 197.762 348.586 199.239 347.783L249.173 318.95C251.72 317.451 252.002 315.209 249.826 313.916Z" fill="#F0E6FE"/>
<path d="M242.95 313.826H241.209L155.503 264.331C154.127 263.705 152.623 263.411 151.113 263.474C149.603 263.536 148.129 263.952 146.809 264.69L96.876 293.511C96.6263 293.656 96.3867 293.819 96.159 293.997H94.7762V296.469C94.8424 296.898 95.0139 297.304 95.2753 297.651C95.5367 297.997 95.8799 298.274 96.2742 298.455L182.224 348.103C183.6 348.727 185.103 349.019 186.613 348.956C188.122 348.894 189.596 348.479 190.917 347.745L240.863 318.95C241.405 318.707 241.881 318.337 242.249 317.871C242.616 317.405 242.866 316.856 242.976 316.273C242.976 316.273 242.95 313.826 242.95 313.826Z" fill="#8295BB"/>
<path d="M182.224 345.849L96.2742 296.149C94.0464 294.868 94.3281 292.614 96.9016 291.128L146.835 262.307C148.154 261.57 149.629 261.153 151.139 261.091C152.649 261.029 154.153 261.322 155.528 261.949L241.478 311.584C243.706 312.865 243.424 315.12 240.85 316.606L190.917 345.439C189.601 346.182 188.129 346.606 186.619 346.677C185.109 346.748 183.604 346.464 182.224 345.849Z" fill="#A0B3D9"/>
<path d="M169.062 283.494C168.715 283.492 168.375 283.4 168.076 283.225L149.229 272.35C148.772 272.085 148.44 271.649 148.304 271.139C148.168 270.628 148.241 270.085 148.506 269.628C148.771 269.171 149.206 268.838 149.716 268.702C150.227 268.566 150.77 268.639 151.226 268.904L170.06 279.779C170.444 279.996 170.745 280.334 170.915 280.74C171.086 281.147 171.116 281.598 171.002 282.024C170.887 282.45 170.635 282.825 170.283 283.091C169.932 283.357 169.502 283.499 169.062 283.494V283.494Z" fill="white"/>
<path d="M132.034 298.173C131.715 298.174 131.401 298.09 131.125 297.93L117.771 290.244C117.564 290.125 117.383 289.966 117.238 289.776C117.092 289.587 116.986 289.37 116.924 289.14C116.862 288.909 116.846 288.668 116.877 288.431C116.909 288.194 116.986 287.966 117.105 287.759C117.225 287.552 117.384 287.371 117.573 287.225C117.763 287.08 117.979 286.973 118.209 286.911C118.44 286.85 118.681 286.834 118.917 286.865C119.154 286.896 119.382 286.974 119.589 287.093L132.943 294.779C133.15 294.898 133.331 295.057 133.477 295.246C133.622 295.436 133.729 295.652 133.791 295.883C133.852 296.114 133.868 296.355 133.837 296.591C133.806 296.828 133.728 297.057 133.609 297.264C133.447 297.538 133.217 297.767 132.941 297.926C132.665 298.085 132.353 298.17 132.034 298.173V298.173Z" fill="white"/>
<path d="M153.083 310.316C152.764 310.316 152.451 310.232 152.174 310.073L138.833 302.387C138.444 302.134 138.166 301.741 138.057 301.289C137.948 300.838 138.017 300.362 138.247 299.958C138.478 299.555 138.855 299.256 139.299 299.122C139.744 298.987 140.223 299.028 140.638 299.236L153.992 306.922C154.342 307.118 154.617 307.426 154.773 307.796C154.929 308.167 154.957 308.578 154.853 308.967C154.749 309.355 154.518 309.697 154.197 309.939C153.877 310.181 153.485 310.309 153.083 310.303V310.316Z" fill="white"/>
<path d="M174.106 322.459C173.791 322.46 173.481 322.376 173.21 322.216L159.856 314.53C159.65 314.412 159.469 314.254 159.324 314.065C159.18 313.877 159.073 313.662 159.011 313.432C158.949 313.203 158.933 312.963 158.964 312.727C158.995 312.492 159.072 312.264 159.19 312.058C159.309 311.852 159.467 311.672 159.655 311.527C159.843 311.382 160.058 311.275 160.288 311.213C160.517 311.151 160.757 311.135 160.992 311.166C161.228 311.197 161.455 311.274 161.661 311.392L175.015 319.078C175.366 319.274 175.641 319.582 175.797 319.952C175.953 320.323 175.981 320.734 175.876 321.122C175.772 321.511 175.541 321.853 175.221 322.095C174.9 322.337 174.508 322.465 174.106 322.459V322.459Z" fill="white"/>
<path d="M195.142 334.602C194.823 334.604 194.509 334.52 194.233 334.359L180.879 326.674C180.654 326.565 180.453 326.411 180.29 326.221C180.126 326.031 180.004 325.809 179.931 325.569C179.857 325.33 179.834 325.078 179.862 324.829C179.89 324.58 179.97 324.34 180.096 324.123C180.221 323.906 180.39 323.718 180.592 323.569C180.794 323.421 181.024 323.316 181.268 323.261C181.512 323.206 181.765 323.201 182.011 323.249C182.257 323.296 182.491 323.393 182.697 323.535L196.051 331.221C196.257 331.34 196.436 331.499 196.58 331.687C196.724 331.876 196.83 332.092 196.89 332.321C196.951 332.551 196.966 332.79 196.934 333.026C196.902 333.261 196.824 333.488 196.704 333.693C196.549 333.97 196.322 334.201 196.047 334.361C195.772 334.521 195.46 334.604 195.142 334.602Z" fill="white"/>
<path d="M142.955 314.479C142.645 314.478 142.339 314.394 142.072 314.236L109.282 295.291C109.082 295.176 108.907 295.022 108.766 294.839C108.625 294.656 108.522 294.447 108.462 294.224C108.402 294.001 108.386 293.768 108.416 293.539C108.446 293.31 108.521 293.089 108.636 292.889C108.751 292.689 108.905 292.514 109.088 292.373C109.27 292.232 109.479 292.129 109.702 292.068C109.925 292.008 110.158 291.993 110.387 292.023C110.616 292.053 110.836 292.127 111.037 292.242L143.839 311.187C144.173 311.383 144.433 311.683 144.579 312.042C144.726 312.4 144.751 312.796 144.651 313.17C144.55 313.544 144.33 313.874 144.024 314.111C143.718 314.347 143.342 314.477 142.955 314.479V314.479Z" fill="white"/>
<path d="M163.313 326.225C163.004 326.225 162.7 326.145 162.429 325.995L149.472 318.514C149.073 318.277 148.782 317.891 148.665 317.441C148.547 316.991 148.612 316.513 148.844 316.11C149.077 315.707 149.458 315.412 149.907 315.289C150.355 315.166 150.834 315.225 151.239 315.453L164.196 322.933C164.598 323.174 164.889 323.561 165.009 324.013C165.128 324.466 165.067 324.947 164.836 325.354C164.68 325.62 164.458 325.84 164.19 325.992C163.923 326.145 163.621 326.225 163.313 326.225V326.225Z" fill="white"/>
<path d="M186.346 339.534C186.04 339.539 185.739 339.46 185.476 339.303L178.126 335.025C177.926 334.91 177.751 334.756 177.61 334.573C177.469 334.39 177.366 334.181 177.306 333.958C177.246 333.735 177.23 333.503 177.26 333.274C177.29 333.045 177.365 332.824 177.48 332.623C177.595 332.423 177.748 332.248 177.931 332.107C178.114 331.966 178.323 331.863 178.546 331.803C178.769 331.743 179.002 331.727 179.231 331.757C179.46 331.787 179.68 331.861 179.88 331.977L187.281 336.255C187.618 336.447 187.882 336.746 188.031 337.105C188.18 337.463 188.206 337.861 188.105 338.236C188.004 338.611 187.782 338.942 187.473 339.177C187.164 339.411 186.786 339.537 186.397 339.534H186.346Z" fill="white"/>
<path d="M146.336 294.612L127.13 283.519C126.209 282.994 126.324 282.059 127.399 281.444L136.528 276.167C137.075 275.862 137.685 275.691 138.31 275.666C138.935 275.642 139.557 275.765 140.126 276.026L159.331 287.106C160.253 287.644 160.138 288.566 159.075 289.181L149.959 294.497C149.406 294.799 148.79 294.966 148.161 294.986C147.532 295.006 146.906 294.878 146.336 294.612V294.612Z" fill="#8295BB"/>
<path d="M225.704 316.99C229.238 314.953 229.238 311.648 225.704 309.599C223.722 308.587 221.528 308.059 219.302 308.059C217.077 308.059 214.883 308.587 212.9 309.599C209.367 311.648 209.367 314.953 212.9 316.99C214.883 318.002 217.077 318.53 219.302 318.53C221.528 318.53 223.722 318.002 225.704 316.99V316.99Z" fill="#8295BB"/>
<g style="mix-blend-mode:multiply">
<path d="M76.5954 238.149L39.3118 259.681L64.6882 274.348L63.4079 274.899L62.7037 281.764L76.5954 281.226L113.879 259.681L76.5954 238.149Z" fill="#F0E6FE"/>
</g>
<path d="M62.7677 246.987L25.4841 225.455L62.7677 203.91L100.051 225.455L62.7677 246.987Z" fill="#94F2E9"/>
<path d="M48.876 238.969L39.3758 233.474L76.6594 211.941L86.1595 217.424L48.876 238.969Z" fill="#6BC8C6"/>
<path d="M39.3758 217.424L48.876 211.941L86.1595 233.474L76.6594 238.969L39.3758 217.424Z" fill="#6BC8C6"/>
<path d="M62.7165 281.764L25.4329 260.232V225.455L62.7165 246.987V281.764Z" fill="#80DED5"/>
<path d="M48.8247 273.746L39.3246 268.263V233.474L48.8247 238.969V273.746Z" fill="#61BEBC"/>
<path d="M99.9872 260.232L62.7037 281.764V246.987L99.9872 225.455V260.232Z" fill="#62C0B7"/>
<path d="M86.0955 268.263L76.5954 273.746V238.969L86.0955 233.474V268.263Z" fill="#57B4B2"/>
<g style="mix-blend-mode:multiply">
<path d="M200.263 128.989L162.967 150.521L188.356 165.188L187.063 165.739L186.359 172.604L200.263 172.066L237.547 150.521L200.263 128.989Z" fill="#F0E6FE"/>
</g>
<path d="M186.423 137.827L149.139 116.295L186.423 94.7499L223.719 116.295L186.423 137.827Z" fill="#94F2E9"/>
<path d="M172.531 129.796L163.031 124.314L200.328 102.781L209.815 108.264L172.531 129.796Z" fill="#6BC8C6"/>
<path d="M163.031 108.264L172.531 102.781L209.815 124.314L200.328 129.796L163.031 108.264Z" fill="#6BC8C6"/>
<path d="M186.372 172.604L149.088 151.072V116.295L186.372 137.827V172.604Z" fill="#80DED5"/>
<path d="M172.48 164.586L162.98 159.09V124.313L172.48 129.796V164.586Z" fill="#61BEBC"/>
<path d="M223.655 151.072L186.359 172.604V137.827L223.655 116.295V151.072Z" fill="#62C0B7"/>
<path d="M209.751 159.09L200.264 164.586V129.796L209.751 124.313V159.09Z" fill="#57B4B2"/>
<path d="M291.693 49.354V35.8658C291.693 24.2479 299.848 10.1193 309.899 4.31674C319.963 -1.49865 328.106 3.21514 328.106 14.8331V28.2828" stroke="#8295BB" stroke-width="2.91" stroke-miterlimit="10" stroke-linecap="round"/>
<path d="M345.826 108.11L273.973 149.612V48.9825L345.826 7.48059V108.11Z" fill="#8C9FC5"/>
<path d="M361.919 117.345L349.846 116.743V16.114L361.919 16.716V117.345Z" fill="#96A9CF"/>
<path d="M349.846 116.743L345.826 108.059V7.42932L349.846 16.114V116.743Z" fill="#A0B3D9"/>
<path d="M361.919 117.576L290.067 159.078V58.4485L361.919 16.9467V117.576Z" fill="#A0B3D9"/>
<path d="M290.067 159.078L286.046 150.726V50.0969L290.067 58.4485V159.078Z" fill="#96A9CF"/>
<path d="M286.046 150.726L273.973 149.791V49.1619L286.046 50.0969V150.726Z" fill="#A0B3D9"/>
<path d="M308.824 58.2307C308.803 58.5916 308.698 58.9426 308.518 59.2561C308.338 59.5695 308.088 59.8368 307.787 60.0368C307.21 60.3699 306.737 60.1009 306.737 59.4348C306.757 59.0723 306.863 58.7198 307.045 58.4059C307.228 58.0921 307.482 57.8258 307.787 57.6287C308.35 57.3085 308.824 57.5646 308.824 58.2307Z" stroke="#8295BB" stroke-width="2.91" stroke-miterlimit="10" stroke-linecap="round"/>
<path d="M345.237 37.1467C345.219 37.5083 345.115 37.8605 344.935 38.1744C344.755 38.4883 344.503 38.7551 344.2 38.9528C343.623 39.2731 343.162 38.9528 343.162 38.3508C343.18 37.9892 343.284 37.637 343.464 37.3231C343.644 37.0092 343.896 36.7425 344.2 36.5447C344.776 36.2629 345.237 36.5319 345.237 37.1467Z" stroke="#8295BB" stroke-width="2.91" stroke-miterlimit="10" stroke-linecap="round"/>
<path d="M307.787 58.8327V45.383C307.787 33.7651 315.93 19.6365 325.993 13.8211C336.044 8.01855 344.199 12.7195 344.199 24.3375V37.8" stroke="#8295BB" stroke-width="2.91" stroke-miterlimit="10" stroke-linecap="round"/>
<g style="mix-blend-mode:multiply">
<path d="M394.402 128.387L315.136 174.564L329.962 182.724L328.682 183.274L327.965 190.14L341.869 189.589L421.135 143.412L394.402 128.387Z" fill="#F0E6FE"/>
</g>
<path d="M329.796 120.509V105.919C329.796 93.328 338.63 78.0209 349.539 71.7188C360.434 65.4295 369.269 70.5275 369.269 83.119V97.7087" stroke="#6BC8C6" stroke-width="3.15" stroke-miterlimit="10" stroke-linecap="round"/>
<path d="M388.474 134.881L310.591 179.867V120.099L388.474 75.1133V134.881Z" fill="#4EACA3"/>
<path d="M405.912 144.898L392.827 144.245V84.4768L405.912 85.1301V144.898Z" fill="#4EACA3"/>
<path d="M392.827 144.245L388.474 134.83V75.0493L392.827 84.4769V144.245Z" fill="#62C0B7"/>
<path d="M405.912 145.154L328.029 190.14V130.372L405.912 85.3862V145.154Z" fill="#62C0B7"/>
<path d="M328.029 190.14L323.676 181.084V121.316L328.029 130.372V190.14Z" fill="#FDD9AB"/>
<path d="M323.676 181.084L310.591 180.072V120.291L323.676 121.316V181.084Z" fill="#FEEDD5"/>
<path d="M348.412 130.129C348.391 130.519 348.279 130.9 348.083 131.238C347.887 131.576 347.613 131.864 347.285 132.076C346.658 132.435 346.158 132.153 346.158 131.423C346.179 131.032 346.292 130.652 346.488 130.313C346.683 129.975 346.957 129.688 347.285 129.476C347.861 129.117 348.412 129.373 348.412 130.129Z" stroke="#6BC8C6" stroke-width="3.15" stroke-miterlimit="10" stroke-linecap="round"/>
<path d="M387.834 107.328C387.813 107.719 387.7 108.099 387.504 108.438C387.309 108.776 387.035 109.063 386.707 109.275C386.079 109.634 385.58 109.352 385.58 108.622C385.601 108.232 385.713 107.851 385.909 107.513C386.105 107.175 386.378 106.887 386.707 106.675C387.334 106.317 387.834 106.611 387.834 107.328Z" stroke="#6BC8C6" stroke-width="3.15" stroke-miterlimit="10" stroke-linecap="round"/>
<path d="M347.234 130.782V116.192C347.234 103.601 356.068 88.294 366.964 81.9919C377.873 75.7025 386.707 80.8006 386.707 93.3921V107.982" stroke="#6BC8C6" stroke-width="3.15" stroke-miterlimit="10" stroke-linecap="round"/>
<g style="mix-blend-mode:multiply">
<path d="M250.043 287.669L287.442 291.602C288.332 291.689 289.227 291.497 290.003 291.051L391.7 232.334C392.343 231.96 392.877 231.423 393.248 230.778C393.619 230.133 393.814 229.402 393.814 228.657C393.814 227.913 393.619 227.182 393.248 226.537C392.877 225.892 392.343 225.355 391.7 224.981L287.724 163.651L250.043 287.669Z" fill="#F0E6FE"/>
</g>
<path d="M321.025 212.851L303.101 202.501V196.032L321.025 206.395V212.851Z" fill="#304F8C"/>
<path d="M321.025 206.395L325.02 204.089V208.637C325.017 209.219 324.862 209.79 324.57 210.293C324.278 210.797 323.859 211.215 323.356 211.506L321.025 212.787V206.395Z" fill="#A0B3D9"/>
<path d="M321.025 206.395L303.101 196.032L307.082 193.74L325.007 204.089L321.025 206.395Z" fill="#304F8C"/>
<path d="M246.83 170.901L228.905 160.538V154.082L246.83 164.445V170.901Z" fill="#304F8C"/>
<path d="M246.83 164.445L250.824 162.139V166.686C250.822 167.267 250.667 167.836 250.375 168.338C250.083 168.839 249.664 169.255 249.16 169.543L246.83 170.901V164.445Z" fill="#A0B3D9"/>
<path d="M246.83 164.445L228.905 154.082L232.887 151.776L250.824 162.139L246.83 164.445Z" fill="#304F8C"/>
<path d="M344.007 103.755L213.323 28.1803C212.982 27.9471 212.592 27.7967 212.183 27.7411C211.774 27.6855 211.358 27.7262 210.967 27.8601L207.574 29.7174L208.394 31.1136L209.367 30.6397C209.367 30.8446 209.367 31.0239 209.367 31.2417V133.818C209.382 135.323 209.752 136.803 210.446 138.138C211.14 139.473 212.139 140.626 213.361 141.503L342.97 216.361L342.778 216.463L343.162 219.025L346.414 217.257C347.4 216.847 348.04 215.682 348.04 213.927V111.338C348.005 109.847 347.623 108.385 346.922 107.068C346.222 105.751 345.224 104.617 344.007 103.755Z" fill="#8C9FC5"/>
<path d="M340.73 218.718L210.135 143.233C208.91 142.358 207.91 141.205 207.216 139.87C206.521 138.534 206.153 137.053 206.14 135.547V33.0094C206.14 30.0761 207.92 28.7184 210.135 29.9993L340.73 105.484C341.955 106.358 342.956 107.511 343.65 108.846C344.345 110.182 344.713 111.664 344.724 113.17V215.759C344.737 218.641 342.958 219.986 340.73 218.718Z" fill="#A0B3D9"/>
<path d="M212.235 132.037V43.6538C212.235 40.7077 214.027 39.3627 216.229 40.6308L334.584 109.032C335.805 109.911 336.803 111.064 337.496 112.399C338.19 113.734 338.561 115.213 338.579 116.718V205.101C338.579 208.047 336.786 209.405 334.584 208.124L216.229 139.62C215.02 138.754 214.029 137.618 213.336 136.301C212.642 134.985 212.265 133.525 212.235 132.037Z" fill="#304F8C"/>
<path d="M344.737 224.853H336.236V226.134L212.568 154.761C211.206 154.142 209.718 153.851 208.223 153.914C206.728 153.976 205.269 154.389 203.964 155.12L123.072 201.861H113.085V209.264C113.125 209.709 113.281 210.136 113.537 210.503C113.793 210.869 114.14 211.162 114.545 211.352L245.229 286.927C246.592 287.543 248.08 287.832 249.574 287.769C251.068 287.707 252.526 287.296 253.833 286.568L342.638 235.331C343.161 235.096 343.622 234.742 343.984 234.297C344.346 233.852 344.6 233.329 344.724 232.769V232.769L344.737 224.853Z" fill="#8C9FC5"/>
<path d="M245.229 279.549L114.545 204.064C112.343 202.783 112.624 200.567 115.172 199.094L203.964 147.857C205.269 147.126 206.728 146.713 208.223 146.651C209.718 146.589 211.206 146.879 212.568 147.498L343.29 222.88C345.493 224.161 345.224 226.377 342.676 227.85L253.871 279.087C252.568 279.838 251.107 280.27 249.605 280.35C248.104 280.43 246.605 280.156 245.229 279.549Z" fill="#A0B3D9"/>
<path d="M157.462 181.788L204.834 154.39C205.88 153.807 207.048 153.477 208.244 153.426C209.44 153.375 210.631 153.604 211.723 154.095L331.767 223.393C333.534 224.405 333.304 226.185 331.268 227.364L283.895 254.763C282.849 255.343 281.681 255.671 280.485 255.72C279.289 255.769 278.098 255.538 277.007 255.044L156.962 185.734C155.196 184.735 155.426 182.954 157.462 181.788Z" fill="#304F8C"/>
<path d="M168.985 223.905L187.332 213.312C188.405 212.714 189.603 212.376 190.831 212.324C192.058 212.273 193.28 212.511 194.4 213.017L229.724 233.422C231.542 234.473 231.312 236.292 229.212 237.509L210.878 248.102C209.802 248.7 208.602 249.038 207.372 249.089C206.143 249.141 204.919 248.903 203.797 248.396L168.473 228.004C166.667 226.941 166.898 225.122 168.985 223.905Z" fill="#304F8C"/>
<path d="M211.044 165.098L202.863 160.371C202.665 160.309 202.493 160.186 202.37 160.019C202.248 159.852 202.181 159.65 202.181 159.443C202.181 159.236 202.248 159.034 202.37 158.867C202.493 158.7 202.665 158.576 202.863 158.514L207.024 156.106C207.522 155.854 208.072 155.723 208.631 155.723C209.189 155.723 209.739 155.854 210.237 156.106L218.432 160.833C218.623 160.901 218.788 161.027 218.905 161.193C219.023 161.36 219.085 161.558 219.085 161.761C219.085 161.965 219.023 162.163 218.905 162.329C218.788 162.495 218.623 162.621 218.432 162.69L214.258 165.098C213.76 165.35 213.209 165.482 212.651 165.482C212.093 165.482 211.542 165.35 211.044 165.098V165.098Z" fill="#A0B3D9"/>
<path d="M224.769 173.027L216.537 168.3C216.339 168.238 216.167 168.115 216.044 167.948C215.922 167.781 215.856 167.579 215.856 167.372C215.856 167.164 215.922 166.963 216.044 166.796C216.167 166.629 216.339 166.505 216.537 166.443L220.698 164.035C221.196 163.783 221.746 163.651 222.305 163.651C222.863 163.651 223.413 163.783 223.911 164.035L232.106 168.761C232.297 168.83 232.463 168.956 232.58 169.122C232.697 169.288 232.759 169.487 232.759 169.69C232.759 169.893 232.697 170.092 232.58 170.258C232.463 170.424 232.297 170.55 232.106 170.619L227.932 173.027C227.44 173.271 226.899 173.398 226.35 173.398C225.802 173.398 225.261 173.271 224.769 173.027Z" fill="#A0B3D9"/>
<path d="M238.495 180.956L230.313 176.229C230.116 176.167 229.943 176.044 229.821 175.877C229.698 175.709 229.632 175.508 229.632 175.301C229.632 175.093 229.698 174.892 229.821 174.725C229.943 174.558 230.116 174.434 230.313 174.372L234.487 171.964C234.983 171.711 235.531 171.579 236.087 171.579C236.644 171.579 237.192 171.711 237.688 171.964L245.882 176.69C246.073 176.759 246.239 176.885 246.356 177.051C246.473 177.217 246.536 177.416 246.536 177.619C246.536 177.822 246.473 178.021 246.356 178.187C246.239 178.353 246.073 178.479 245.882 178.548L241.708 180.956C241.21 181.208 240.66 181.339 240.101 181.339C239.543 181.339 238.993 181.208 238.495 180.956Z" fill="#A0B3D9"/>
<path d="M252.22 188.885L244.038 184.158C243.847 184.09 243.682 183.964 243.564 183.797C243.447 183.631 243.385 183.433 243.385 183.23C243.385 183.026 243.447 182.828 243.564 182.662C243.682 182.495 243.847 182.369 244.038 182.301L248.212 179.893C248.708 179.64 249.256 179.508 249.813 179.508C250.369 179.508 250.918 179.64 251.413 179.893L259.607 184.619C259.799 184.688 259.964 184.814 260.081 184.98C260.198 185.146 260.261 185.345 260.261 185.548C260.261 185.751 260.198 185.95 260.081 186.116C259.964 186.282 259.799 186.408 259.607 186.477L255.433 188.885C254.935 189.137 254.385 189.268 253.827 189.268C253.268 189.268 252.718 189.137 252.22 188.885V188.885Z" fill="#A0B3D9"/>
<path d="M265.945 196.814L257.764 192.138C257.572 192.07 257.407 191.944 257.29 191.778C257.173 191.611 257.11 191.413 257.11 191.21C257.11 191.006 257.173 190.808 257.29 190.642C257.407 190.475 257.572 190.349 257.764 190.281L261.938 187.873C262.433 187.62 262.982 187.488 263.538 187.488C264.094 187.488 264.643 187.62 265.138 187.873L273.333 192.599C273.524 192.668 273.69 192.794 273.807 192.96C273.924 193.126 273.986 193.325 273.986 193.528C273.986 193.731 273.924 193.93 273.807 194.096C273.69 194.262 273.524 194.388 273.333 194.457L269.159 196.865C268.657 197.109 268.104 197.232 267.546 197.223C266.987 197.214 266.439 197.074 265.945 196.814V196.814Z" fill="#A0B3D9"/>
<path d="M279.67 204.743L271.489 200.016C271.298 199.948 271.132 199.822 271.015 199.655C270.898 199.489 270.835 199.291 270.835 199.087C270.835 198.884 270.898 198.686 271.015 198.519C271.132 198.353 271.298 198.227 271.489 198.159L275.663 195.751C276.158 195.498 276.707 195.366 277.263 195.366C277.82 195.366 278.368 195.498 278.864 195.751L287.058 200.477C287.249 200.546 287.415 200.672 287.532 200.838C287.649 201.004 287.712 201.202 287.712 201.406C287.712 201.609 287.649 201.808 287.532 201.974C287.415 202.14 287.249 202.266 287.058 202.334L282.884 204.743C282.386 204.995 281.835 205.126 281.277 205.126C280.719 205.126 280.168 204.995 279.67 204.743V204.743Z" fill="#A0B3D9"/>
<path d="M293.357 212.633L285.163 207.907C284.972 207.838 284.806 207.712 284.689 207.546C284.572 207.38 284.509 207.181 284.509 206.978C284.509 206.775 284.572 206.576 284.689 206.41C284.806 206.244 284.972 206.118 285.163 206.049L289.388 203.667C289.884 203.414 290.432 203.282 290.989 203.282C291.545 203.282 292.093 203.414 292.589 203.667L300.783 208.393C300.975 208.462 301.14 208.588 301.257 208.754C301.374 208.92 301.437 209.119 301.437 209.322C301.437 209.525 301.374 209.724 301.257 209.89C301.14 210.056 300.975 210.182 300.783 210.251L296.609 212.633C296.107 212.895 295.549 213.031 294.983 213.031C294.417 213.031 293.859 212.895 293.357 212.633V212.633Z" fill="#A0B3D9"/>
<path d="M307.134 220.6L298.939 215.861C298.747 215.796 298.579 215.672 298.46 215.506C298.342 215.341 298.278 215.142 298.278 214.939C298.278 214.735 298.342 214.537 298.46 214.371C298.579 214.206 298.747 214.082 298.939 214.016L303.113 211.608C303.609 211.355 304.157 211.223 304.714 211.223C305.27 211.223 305.819 211.355 306.314 211.608L314.508 216.335C314.7 216.403 314.865 216.529 314.982 216.696C315.099 216.862 315.162 217.06 315.162 217.264C315.162 217.467 315.099 217.665 314.982 217.832C314.865 217.998 314.7 218.124 314.508 218.192L310.334 220.6C309.839 220.853 309.29 220.985 308.734 220.985C308.178 220.985 307.629 220.853 307.134 220.6V220.6Z" fill="#A0B3D9"/>
<path d="M320.859 228.529L312.665 223.79C312.472 223.725 312.304 223.601 312.186 223.435C312.067 223.27 312.003 223.071 312.003 222.868C312.003 222.664 312.067 222.466 312.186 222.3C312.304 222.135 312.472 222.011 312.665 221.945L316.839 219.537C317.334 219.284 317.883 219.152 318.439 219.152C318.995 219.152 319.544 219.284 320.039 219.537L328.234 224.264C328.425 224.332 328.591 224.458 328.708 224.625C328.825 224.791 328.887 224.989 328.887 225.193C328.887 225.396 328.825 225.594 328.708 225.76C328.591 225.927 328.425 226.053 328.234 226.121L324.085 228.529C323.586 228.787 323.033 228.921 322.472 228.921C321.911 228.921 321.358 228.787 320.859 228.529V228.529Z" fill="#A0B3D9"/>
<path d="M207.869 174.5L193.132 165.982C192.939 165.917 192.772 165.793 192.653 165.627C192.534 165.462 192.47 165.263 192.47 165.06C192.47 164.856 192.534 164.657 192.653 164.492C192.772 164.327 192.939 164.203 193.132 164.137L197.306 161.716C197.806 161.47 198.356 161.342 198.913 161.342C199.47 161.342 200.02 161.47 200.52 161.716L215.256 170.235C215.448 170.303 215.613 170.429 215.73 170.595C215.847 170.761 215.91 170.96 215.91 171.163C215.91 171.367 215.847 171.565 215.73 171.731C215.613 171.897 215.448 172.023 215.256 172.092L211.082 174.5C210.584 174.752 210.034 174.884 209.476 174.884C208.917 174.884 208.367 174.752 207.869 174.5V174.5Z" fill="#A0B3D9"/>
<path d="M221.658 182.429L213.477 177.69C212.58 177.177 212.58 176.409 213.477 175.845L217.638 173.437C218.136 173.185 218.686 173.053 219.245 173.053C219.803 173.053 220.353 173.185 220.851 173.437L229.046 178.163C229.237 178.232 229.403 178.358 229.52 178.524C229.637 178.69 229.699 178.889 229.699 179.092C229.699 179.295 229.637 179.494 229.52 179.66C229.403 179.826 229.237 179.952 229.046 180.021L224.872 182.429C224.374 182.681 223.823 182.812 223.265 182.812C222.707 182.812 222.156 182.681 221.658 182.429V182.429Z" fill="#A0B3D9"/>
<path d="M235.319 190.358L227.138 185.618C226.242 185.106 226.242 184.338 227.138 183.774L231.299 181.366C231.797 181.114 232.348 180.982 232.906 180.982C233.464 180.982 234.015 181.114 234.513 181.366L242.707 186.092C242.898 186.161 243.064 186.287 243.181 186.453C243.298 186.619 243.361 186.818 243.361 187.021C243.361 187.224 243.298 187.423 243.181 187.589C243.064 187.755 242.898 187.881 242.707 187.95L238.533 190.358C238.035 190.61 237.484 190.741 236.926 190.741C236.368 190.741 235.817 190.61 235.319 190.358Z" fill="#A0B3D9"/>
<path d="M249.045 198.287L240.863 193.547C239.967 193.035 239.967 192.266 240.863 191.703L245.024 189.295C245.522 189.042 246.073 188.911 246.631 188.911C247.189 188.911 247.74 189.042 248.238 189.295L256.432 194.021C256.625 194.086 256.792 194.21 256.911 194.376C257.03 194.541 257.094 194.74 257.094 194.943C257.094 195.147 257.03 195.346 256.911 195.511C256.792 195.677 256.625 195.801 256.432 195.866L252.258 198.287C251.76 198.539 251.21 198.67 250.651 198.67C250.093 198.67 249.543 198.539 249.045 198.287V198.287Z" fill="#A0B3D9"/>
<path d="M262.77 206.228L254.588 201.489C253.692 200.977 253.692 200.208 254.588 199.645L258.788 197.262C259.286 197.01 259.837 196.879 260.395 196.879C260.953 196.879 261.503 197.01 262.002 197.262L270.196 202.001C270.389 202.067 270.556 202.191 270.675 202.356C270.793 202.522 270.857 202.72 270.857 202.924C270.857 203.127 270.793 203.326 270.675 203.491C270.556 203.657 270.389 203.781 270.196 203.846L265.983 206.228C265.484 206.475 264.934 206.603 264.377 206.603C263.819 206.603 263.27 206.475 262.77 206.228V206.228Z" fill="#A0B3D9"/>
<path d="M276.495 214.132L268.314 209.405C268.121 209.34 267.953 209.216 267.835 209.05C267.716 208.885 267.652 208.687 267.652 208.483C267.652 208.279 267.716 208.081 267.835 207.915C267.953 207.75 268.121 207.626 268.314 207.561L272.488 205.14C272.983 204.887 273.532 204.755 274.088 204.755C274.644 204.755 275.193 204.887 275.688 205.14L283.883 209.879C284.075 209.944 284.243 210.068 284.362 210.234C284.48 210.399 284.544 210.598 284.544 210.801C284.544 211.005 284.48 211.204 284.362 211.369C284.243 211.534 284.075 211.658 283.883 211.724L279.709 214.132C279.211 214.384 278.66 214.515 278.102 214.515C277.544 214.515 276.993 214.384 276.495 214.132V214.132Z" fill="#A0B3D9"/>
<path d="M290.22 222.061L282.039 217.334C281.848 217.266 281.682 217.14 281.565 216.973C281.448 216.807 281.385 216.609 281.385 216.405C281.385 216.202 281.448 216.004 281.565 215.837C281.682 215.671 281.848 215.545 282.039 215.477L286.213 213.069C286.708 212.816 287.257 212.684 287.813 212.684C288.37 212.684 288.918 212.816 289.414 213.069L297.608 217.808C297.801 217.873 297.968 217.997 298.087 218.163C298.206 218.328 298.269 218.527 298.269 218.73C298.269 218.934 298.206 219.132 298.087 219.298C297.968 219.463 297.801 219.587 297.608 219.652L293.434 222.061C292.936 222.313 292.385 222.444 291.827 222.444C291.269 222.444 290.718 222.313 290.22 222.061V222.061Z" fill="#A0B3D9"/>
<path d="M311.128 234.14L296.097 225.442C295.906 225.374 295.74 225.248 295.623 225.082C295.506 224.915 295.443 224.717 295.443 224.514C295.443 224.31 295.506 224.112 295.623 223.946C295.74 223.779 295.906 223.653 296.097 223.585L300.271 221.177C300.767 220.924 301.315 220.792 301.871 220.792C302.428 220.792 302.976 220.924 303.472 221.177L318.516 229.861C318.707 229.93 318.873 230.056 318.99 230.222C319.107 230.388 319.17 230.587 319.17 230.79C319.17 230.993 319.107 231.192 318.99 231.358C318.873 231.524 318.707 231.65 318.516 231.719L314.342 234.127C313.845 234.381 313.295 234.515 312.737 234.517C312.178 234.519 311.627 234.39 311.128 234.14V234.14Z" fill="#A0B3D9"/>
<path d="M188.369 185.734L173.632 177.216C173.441 177.147 173.276 177.021 173.159 176.855C173.041 176.689 172.979 176.49 172.979 176.287C172.979 176.084 173.041 175.885 173.159 175.719C173.276 175.553 173.441 175.427 173.632 175.358L177.806 172.95C178.304 172.698 178.855 172.567 179.413 172.567C179.971 172.567 180.522 172.698 181.02 172.95L195.757 181.468C195.95 181.533 196.117 181.658 196.236 181.823C196.354 181.988 196.418 182.187 196.418 182.391C196.418 182.594 196.354 182.793 196.236 182.958C196.117 183.124 195.95 183.248 195.757 183.313L191.634 185.734C191.129 185.994 190.57 186.13 190.002 186.13C189.434 186.13 188.874 185.994 188.369 185.734V185.734Z" fill="#A0B3D9"/>
<path d="M202.146 193.663L193.964 188.923C193.771 188.858 193.604 188.734 193.485 188.568C193.367 188.403 193.303 188.205 193.303 188.001C193.303 187.797 193.367 187.599 193.485 187.433C193.604 187.268 193.771 187.144 193.964 187.079L198.138 184.658C198.636 184.412 199.183 184.283 199.739 184.283C200.294 184.283 200.841 184.412 201.339 184.658L209.533 189.397C209.726 189.462 209.894 189.586 210.012 189.752C210.131 189.917 210.195 190.116 210.195 190.319C210.195 190.523 210.131 190.722 210.012 190.887C209.894 191.052 209.726 191.176 209.533 191.242L205.359 193.663C204.861 193.915 204.311 194.046 203.752 194.046C203.194 194.046 202.644 193.915 202.146 193.663V193.663Z" fill="#A0B3D9"/>
<path d="M215.871 201.591L207.689 196.852C207.497 196.787 207.329 196.663 207.21 196.497C207.092 196.332 207.028 196.133 207.028 195.93C207.028 195.726 207.092 195.528 207.21 195.362C207.329 195.197 207.497 195.073 207.689 195.008L211.863 192.587C212.359 192.334 212.907 192.202 213.464 192.202C214.02 192.202 214.569 192.334 215.064 192.587L223.258 197.326C223.451 197.391 223.619 197.515 223.737 197.681C223.856 197.846 223.92 198.045 223.92 198.248C223.92 198.452 223.856 198.65 223.737 198.816C223.619 198.981 223.451 199.105 223.258 199.171L219.097 201.591C218.596 201.84 218.044 201.969 217.484 201.969C216.924 201.969 216.372 201.84 215.871 201.591V201.591Z" fill="#A0B3D9"/>
<path d="M229.596 209.508L221.415 204.781C221.223 204.713 221.058 204.587 220.941 204.42C220.824 204.254 220.761 204.056 220.761 203.852C220.761 203.649 220.824 203.451 220.941 203.284C221.058 203.118 221.223 202.992 221.415 202.924L225.589 200.516C226.084 200.263 226.633 200.131 227.189 200.131C227.746 200.131 228.294 200.263 228.79 200.516L236.984 205.255C237.177 205.32 237.344 205.444 237.463 205.61C237.581 205.775 237.645 205.974 237.645 206.177C237.645 206.381 237.581 206.579 237.463 206.745C237.344 206.91 237.177 207.034 236.984 207.099L232.81 209.508C232.312 209.76 231.761 209.891 231.203 209.891C230.645 209.891 230.094 209.76 229.596 209.508V209.508Z" fill="#A0B3D9"/>
<path d="M243.334 217.437L235.14 212.71C234.949 212.641 234.783 212.515 234.666 212.349C234.549 212.183 234.486 211.985 234.486 211.781C234.486 211.578 234.549 211.38 234.666 211.213C234.783 211.047 234.949 210.921 235.14 210.853L239.314 208.444C239.81 208.191 240.358 208.06 240.914 208.06C241.471 208.06 242.019 208.191 242.515 208.444L250.709 213.184C250.902 213.249 251.069 213.373 251.188 213.539C251.307 213.704 251.371 213.903 251.371 214.106C251.371 214.31 251.307 214.508 251.188 214.674C251.069 214.839 250.902 214.963 250.709 215.028L246.535 217.437C246.039 217.69 245.491 217.822 244.935 217.822C244.378 217.822 243.83 217.69 243.334 217.437V217.437Z" fill="#A0B3D9"/>
<path d="M257.059 225.365L248.865 220.639C248.674 220.57 248.508 220.444 248.391 220.278C248.274 220.112 248.212 219.913 248.212 219.71C248.212 219.507 248.274 219.308 248.391 219.142C248.508 218.976 248.674 218.85 248.865 218.781L253.039 216.373C253.535 216.12 254.083 215.988 254.64 215.988C255.196 215.988 255.744 216.12 256.24 216.373L264.434 221.113C264.627 221.178 264.795 221.302 264.913 221.467C265.032 221.633 265.096 221.831 265.096 222.035C265.096 222.239 265.032 222.437 264.913 222.603C264.795 222.768 264.627 222.892 264.434 222.957L260.26 225.365C259.765 225.618 259.216 225.75 258.66 225.75C258.104 225.75 257.555 225.618 257.059 225.365V225.365Z" fill="#A0B3D9"/>
<path d="M270.785 233.294L262.591 228.568C262.399 228.499 262.234 228.373 262.117 228.207C262 228.041 261.937 227.842 261.937 227.639C261.937 227.436 262 227.237 262.117 227.071C262.234 226.905 262.399 226.779 262.591 226.71L266.764 224.302C267.26 224.049 267.808 223.917 268.365 223.917C268.921 223.917 269.47 224.049 269.965 224.302L278.159 229.029C278.351 229.097 278.516 229.223 278.633 229.39C278.75 229.556 278.813 229.754 278.813 229.958C278.813 230.161 278.75 230.359 278.633 230.525C278.516 230.692 278.351 230.818 278.159 230.886L273.986 233.294C273.49 233.547 272.942 233.679 272.385 233.679C271.829 233.679 271.28 233.547 270.785 233.294V233.294Z" fill="#A0B3D9"/>
<path d="M291.68 245.373L276.713 236.689C276.521 236.62 276.356 236.494 276.239 236.328C276.122 236.162 276.059 235.963 276.059 235.76C276.059 235.557 276.122 235.358 276.239 235.192C276.356 235.026 276.521 234.9 276.713 234.831L280.887 232.423C281.385 232.171 281.935 232.04 282.493 232.04C283.052 232.04 283.602 232.171 284.1 232.423L299.131 241.108C299.323 241.176 299.488 241.302 299.605 241.469C299.722 241.635 299.785 241.833 299.785 242.037C299.785 242.24 299.722 242.438 299.605 242.605C299.488 242.771 299.323 242.897 299.131 242.965L294.958 245.373C294.451 245.636 293.889 245.773 293.319 245.773C292.748 245.773 292.186 245.636 291.68 245.373V245.373Z" fill="#A0B3D9"/>
<path d="M191.596 176.332L183.414 171.644C183.223 171.575 183.057 171.449 182.94 171.283C182.823 171.117 182.76 170.918 182.76 170.715C182.76 170.512 182.823 170.313 182.94 170.147C183.057 169.981 183.223 169.855 183.414 169.786L187.588 167.378C188.084 167.125 188.632 166.993 189.189 166.993C189.745 166.993 190.293 167.125 190.789 167.378L198.983 172.105C199.175 172.173 199.34 172.299 199.457 172.465C199.574 172.632 199.637 172.83 199.637 173.033C199.637 173.237 199.574 173.435 199.457 173.601C199.34 173.768 199.175 173.894 198.983 173.962L194.771 176.332C194.278 176.578 193.734 176.706 193.183 176.706C192.632 176.706 192.089 176.578 191.596 176.332Z" fill="#A0B3D9"/>
<path d="M205.321 184.261L197.14 179.534C196.948 179.466 196.783 179.34 196.666 179.173C196.549 179.007 196.486 178.809 196.486 178.605C196.486 178.402 196.549 178.204 196.666 178.037C196.783 177.871 196.948 177.745 197.14 177.677L201.313 175.269C201.809 175.016 202.357 174.884 202.914 174.884C203.47 174.884 204.019 175.016 204.514 175.269L212.708 179.995C212.9 180.064 213.065 180.19 213.182 180.356C213.299 180.522 213.362 180.721 213.362 180.924C213.362 181.127 213.299 181.326 213.182 181.492C213.065 181.658 212.9 181.784 212.708 181.853L208.535 184.261C208.036 184.513 207.486 184.644 206.928 184.644C206.369 184.644 205.819 184.513 205.321 184.261V184.261Z" fill="#A0B3D9"/>
<path d="M219.097 192.138L210.903 187.412C210.712 187.343 210.546 187.217 210.429 187.051C210.312 186.885 210.249 186.686 210.249 186.483C210.249 186.28 210.312 186.081 210.429 185.915C210.546 185.749 210.712 185.623 210.903 185.554L215.077 183.146C215.573 182.893 216.121 182.761 216.678 182.761C217.234 182.761 217.782 182.893 218.278 183.146L226.472 187.873C226.663 187.941 226.829 188.067 226.946 188.234C227.063 188.4 227.126 188.598 227.126 188.802C227.126 189.005 227.063 189.203 226.946 189.369C226.829 189.536 226.663 189.662 226.472 189.73L222.26 192.138C221.769 192.385 221.228 192.514 220.679 192.514C220.129 192.514 219.588 192.385 219.097 192.138V192.138Z" fill="#A0B3D9"/>
<path d="M232.784 200.118L224.59 195.392C224.399 195.323 224.233 195.197 224.116 195.031C223.999 194.865 223.936 194.667 223.936 194.463C223.936 194.26 223.999 194.061 224.116 193.895C224.233 193.729 224.399 193.603 224.59 193.535L228.764 191.126C229.259 190.873 229.808 190.741 230.364 190.741C230.921 190.741 231.469 190.873 231.965 191.126L240.159 195.853C240.35 195.921 240.516 196.047 240.633 196.214C240.75 196.38 240.813 196.578 240.813 196.782C240.813 196.985 240.75 197.183 240.633 197.35C240.516 197.516 240.35 197.642 240.159 197.71L235.985 200.118C235.489 200.371 234.941 200.503 234.385 200.503C233.828 200.503 233.28 200.371 232.784 200.118V200.118Z" fill="#A0B3D9"/>
<path d="M246.509 208.047L238.315 203.321C238.124 203.252 237.958 203.126 237.841 202.96C237.724 202.794 237.661 202.595 237.661 202.392C237.661 202.189 237.724 201.99 237.841 201.824C237.958 201.658 238.124 201.532 238.315 201.463L242.489 199.055C242.985 198.802 243.533 198.67 244.09 198.67C244.646 198.67 245.194 198.802 245.69 199.055L253.884 203.782C254.076 203.85 254.241 203.976 254.358 204.143C254.475 204.309 254.538 204.507 254.538 204.711C254.538 204.914 254.475 205.112 254.358 205.279C254.241 205.445 254.076 205.571 253.884 205.639L249.71 208.047C249.215 208.3 248.666 208.432 248.11 208.432C247.554 208.432 247.005 208.3 246.509 208.047Z" fill="#A0B3D9"/>
<path d="M260.235 215.976L252.041 211.237C251.848 211.172 251.68 211.048 251.562 210.882C251.443 210.717 251.379 210.518 251.379 210.315C251.379 210.111 251.443 209.912 251.562 209.747C251.68 209.582 251.848 209.458 252.041 209.392L256.214 206.984C256.713 206.732 257.263 206.601 257.821 206.601C258.38 206.601 258.93 206.732 259.428 206.984L267.61 211.711C267.801 211.779 267.966 211.905 268.083 212.072C268.2 212.238 268.263 212.436 268.263 212.639C268.263 212.843 268.2 213.041 268.083 213.207C267.966 213.374 267.801 213.5 267.61 213.568L263.436 215.976C262.94 216.229 262.392 216.361 261.835 216.361C261.279 216.361 260.73 216.229 260.235 215.976V215.976Z" fill="#A0B3D9"/>
<path d="M273.96 223.905L265.766 219.166C265.573 219.101 265.405 218.977 265.287 218.811C265.168 218.646 265.104 218.447 265.104 218.244C265.104 218.04 265.168 217.841 265.287 217.676C265.405 217.511 265.573 217.386 265.766 217.321L269.94 214.913C270.438 214.661 270.988 214.53 271.547 214.53C272.105 214.53 272.655 214.661 273.153 214.913L281.335 219.64C281.526 219.708 281.692 219.834 281.809 220C281.926 220.167 281.989 220.365 281.989 220.568C281.989 220.772 281.926 220.97 281.809 221.136C281.692 221.303 281.526 221.429 281.335 221.497L277.161 223.905C276.665 224.158 276.117 224.29 275.56 224.29C275.004 224.29 274.456 224.158 273.96 223.905Z" fill="#A0B3D9"/>
<path d="M301.411 239.763L279.645 227.146C279.452 227.081 279.284 226.957 279.166 226.791C279.047 226.626 278.983 226.427 278.983 226.224C278.983 226.02 279.047 225.822 279.166 225.656C279.284 225.491 279.452 225.367 279.645 225.301L283.755 222.88C284.253 222.628 284.803 222.497 285.361 222.497C285.92 222.497 286.47 222.628 286.968 222.88L308.734 235.485C308.927 235.55 309.094 235.674 309.213 235.839C309.332 236.005 309.396 236.203 309.396 236.407C309.396 236.611 309.332 236.809 309.213 236.975C309.094 237.14 308.927 237.264 308.734 237.329L304.56 239.75C304.072 239.997 303.534 240.126 302.987 240.129C302.44 240.131 301.9 240.006 301.411 239.763V239.763Z" fill="#A0B3D9"/>
<path d="M172.16 187.565L163.966 182.839C163.774 182.77 163.609 182.644 163.492 182.478C163.375 182.312 163.312 182.114 163.312 181.91C163.312 181.707 163.375 181.508 163.492 181.342C163.609 181.176 163.774 181.05 163.966 180.982L168.14 178.573C168.635 178.32 169.184 178.188 169.74 178.188C170.297 178.188 170.845 178.32 171.341 178.573L179.535 183.3C179.726 183.368 179.892 183.494 180.009 183.661C180.126 183.827 180.189 184.025 180.189 184.229C180.189 184.432 180.126 184.63 180.009 184.797C179.892 184.963 179.726 185.089 179.535 185.157L175.361 187.565C174.865 187.818 174.317 187.95 173.76 187.95C173.204 187.95 172.656 187.818 172.16 187.565Z" fill="#A0B3D9"/>
<path d="M185.885 195.494L177.691 190.768C177.5 190.699 177.334 190.573 177.217 190.407C177.1 190.241 177.037 190.042 177.037 189.839C177.037 189.636 177.1 189.437 177.217 189.271C177.334 189.105 177.5 188.979 177.691 188.91L181.865 186.502C182.363 186.25 182.914 186.119 183.472 186.119C184.03 186.119 184.581 186.25 185.079 186.502L193.26 191.229C193.451 191.297 193.617 191.423 193.734 191.59C193.851 191.756 193.914 191.954 193.914 192.158C193.914 192.361 193.851 192.559 193.734 192.725C193.617 192.892 193.451 193.018 193.26 193.086L189.086 195.494C188.591 195.747 188.042 195.879 187.486 195.879C186.929 195.879 186.381 195.747 185.885 195.494V195.494Z" fill="#A0B3D9"/>
<path d="M240.786 227.21L191.416 198.684C191.224 198.619 191.056 198.495 190.937 198.329C190.819 198.164 190.755 197.965 190.755 197.762C190.755 197.558 190.819 197.359 190.937 197.194C191.056 197.028 191.224 196.904 191.416 196.839L195.59 194.431C196.088 194.179 196.639 194.048 197.197 194.048C197.755 194.048 198.306 194.179 198.804 194.431L248.161 222.944C249.057 223.457 249.057 224.225 248.161 224.789L244 227.21C243.502 227.462 242.951 227.593 242.393 227.593C241.835 227.593 241.284 227.462 240.786 227.21Z" fill="#A0B3D9"/>
<path d="M254.512 235.139L246.317 230.399C246.125 230.334 245.957 230.21 245.838 230.045C245.72 229.879 245.656 229.681 245.656 229.477C245.656 229.274 245.72 229.075 245.838 228.91C245.957 228.744 246.125 228.62 246.317 228.555L250.491 226.134C250.991 225.888 251.541 225.76 252.098 225.76C252.655 225.76 253.205 225.888 253.705 226.134L261.886 230.873C262.783 231.386 262.783 232.154 261.886 232.718L257.725 235.139C257.225 235.385 256.676 235.513 256.118 235.513C255.561 235.513 255.011 235.385 254.512 235.139V235.139Z" fill="#A0B3D9"/>
<path d="M268.237 243.055L260.043 238.328C259.85 238.263 259.682 238.139 259.564 237.974C259.445 237.808 259.381 237.61 259.381 237.406C259.381 237.203 259.445 237.004 259.564 236.839C259.682 236.673 259.85 236.549 260.043 236.484L264.217 234.063C264.715 233.811 265.265 233.679 265.823 233.679C266.382 233.679 266.932 233.811 267.43 234.063L275.612 238.802C276.508 239.315 276.508 240.083 275.612 240.647L271.451 243.055C270.952 243.307 270.402 243.439 269.844 243.439C269.285 243.439 268.735 243.307 268.237 243.055Z" fill="#A0B3D9"/>
<path d="M281.962 250.984L273.768 246.257C273.577 246.189 273.411 246.063 273.294 245.897C273.177 245.73 273.114 245.532 273.114 245.329C273.114 245.125 273.177 244.927 273.294 244.761C273.411 244.594 273.577 244.468 273.768 244.4L277.942 241.992C278.44 241.74 278.99 241.608 279.549 241.608C280.107 241.608 280.657 241.74 281.155 241.992L289.337 246.731C290.233 247.244 290.233 248.012 289.337 248.576L285.176 250.984C284.678 251.236 284.127 251.367 283.569 251.367C283.011 251.367 282.46 251.236 281.962 250.984V250.984Z" fill="#A0B3D9"/>
<path d="M315.597 247.974V246.526C315.598 246.356 315.639 246.189 315.717 246.037C315.795 245.886 315.907 245.755 316.045 245.655L324.252 240.916C324.508 240.762 324.713 240.916 324.713 241.262V242.709C324.711 242.88 324.668 243.049 324.588 243.201C324.508 243.352 324.392 243.482 324.252 243.58L316.045 248.32C315.802 248.499 315.597 248.307 315.597 247.974Z" fill="#304F8C"/>
<path d="M303.459 254.98V253.533C303.46 253.361 303.502 253.192 303.583 253.041C303.663 252.889 303.779 252.759 303.92 252.662L312.127 247.922C312.37 247.769 312.575 247.923 312.575 248.268V249.78C312.573 249.95 312.531 250.117 312.453 250.268C312.375 250.419 312.264 250.55 312.127 250.651L303.92 255.39C303.664 255.467 303.459 255.313 303.459 254.98Z" fill="#304F8C"/>
<g style="mix-blend-mode:multiply">
<path d="M345.749 286.67L308.452 308.203L333.829 322.856L332.548 323.42L331.844 330.286L345.749 329.735L383.032 308.203L345.749 286.67Z" fill="#F0E6FE"/>
</g>
<path d="M331.908 295.509L294.625 273.964L331.908 252.431L369.192 273.964L331.908 295.509Z" fill="#94F2E9"/>
<path d="M318.017 287.477L308.516 281.995L345.8 260.463L355.3 265.945L318.017 287.477Z" fill="#6BC8C6"/>
<path d="M308.516 265.945L318.017 260.463L355.3 281.995L345.8 287.477L308.516 265.945Z" fill="#6BC8C6"/>
<path d="M331.857 330.286L294.573 308.753V273.964L331.857 295.509V330.286Z" fill="#80DED5"/>
<path d="M317.965 322.254L308.465 316.772V281.995L317.965 287.477V322.254Z" fill="#61BEBC"/>
<path d="M369.128 308.753L331.844 330.286V295.509L369.128 273.964V308.753Z" fill="#62C0B7"/>
<path d="M355.236 316.772L345.749 322.254V287.477L355.236 281.995V316.772Z" fill="#57B4B2"/>
<path d="M261.144 178.279L220.634 154.876C216.255 152.314 212.708 155.03 212.708 160.871C212.708 166.712 216.255 173.488 220.634 176.012L261.144 199.414C265.523 201.976 269.069 199.26 269.069 193.419C269.031 187.578 265.523 180.802 261.144 178.279Z" fill="#76D4CB"/>
<path d="M212.158 156.337L215.295 154.556L218.905 156.17C218.905 156.17 217.356 159.232 217.074 159.091C216.793 158.95 212.158 156.337 212.158 156.337Z" fill="#76D4CB"/>
<path d="M263.269 201.566L266.278 199.849L266.368 196.929L263.423 197.966L263.269 201.566Z" fill="#76D4CB"/>
<path d="M257.423 180.368L216.913 156.966C212.547 154.404 209 157.12 209 162.961C209 168.789 212.547 175.578 216.913 178.101L257.423 201.504C261.801 204.066 265.348 201.35 265.348 195.509C265.348 189.668 261.801 182.892 257.423 180.368Z" fill="#94F2E9"/>
<path d="M225.564 176.272C226.574 176.853 227.292 176.652 227.292 175.618C227.292 174.484 226.501 173.746 225.797 173.096C225.073 172.426 224.96 172.193 224.96 171.948C224.96 171.733 225.126 171.637 225.458 171.828C225.883 172.072 226.103 172.436 226.262 172.911L227.159 172.821C226.82 171.837 226.222 171.072 225.458 170.632C224.654 170.17 223.897 170.332 223.897 171.367C223.897 172.394 224.575 173.167 225.265 173.786C225.963 174.409 226.229 174.693 226.229 175.022C226.229 175.229 226.103 175.386 225.598 175.096C225.073 174.794 224.787 174.331 224.621 173.791L223.704 173.877C223.963 174.815 224.588 175.711 225.564 176.272ZM227.79 172.081V177.445L228.853 178.056V172.692L227.79 172.081ZM231.215 179.521C232.225 180.102 232.942 179.901 232.942 178.867C232.942 177.733 232.152 176.995 231.448 176.345C230.724 175.675 230.611 175.442 230.611 175.197C230.611 174.982 230.777 174.886 231.109 175.077C231.534 175.321 231.753 175.685 231.913 176.16L232.81 176.07C232.471 175.086 231.873 174.321 231.109 173.881C230.305 173.419 229.548 173.582 229.548 174.616C229.548 175.643 230.225 176.416 230.916 177.035C231.614 177.658 231.879 177.942 231.879 178.271C231.879 178.478 231.753 178.635 231.248 178.345C230.724 178.043 230.438 177.58 230.272 177.04L229.355 177.126C229.614 178.064 230.239 178.96 231.215 179.521ZM236.427 177.047L232.973 175.06V176.241L234.169 176.928V181.112L235.231 181.723V177.539L236.427 178.227V177.047ZM238.845 183.909C240.181 184.676 241.264 184.088 241.264 182.51C241.264 180.931 240.181 179.098 238.845 178.33C237.51 177.562 236.427 178.15 236.427 179.729C236.427 181.307 237.51 183.141 238.845 183.909ZM238.845 182.713C238.088 182.278 237.49 181.298 237.49 180.34C237.49 179.382 238.088 179.09 238.845 179.525C239.603 179.961 240.201 180.94 240.201 181.898C240.201 182.856 239.603 183.149 238.845 182.713ZM245.622 187.698L243.988 184.007L245.556 182.295L244.347 181.6L242.925 183.112V180.783L241.862 180.172V185.536L242.925 186.147V183.664L244.413 187.003L245.622 187.698Z" fill="#304F8C"/>
<path d="M286.635 136.393L292.935 123.045C293.129 122.459 293.205 121.841 293.159 121.225C293.113 120.61 292.945 120.009 292.666 119.459C292.134 118.164 291.218 117.064 290.041 116.308L255.382 96.287C254.882 95.9634 254.282 95.8315 253.692 95.9155L251.58 89.1138C251.339 88.3229 250.826 87.6424 250.133 87.1925L246.983 85.3735C246.817 85.2488 246.618 85.1761 246.41 85.1647C246.203 85.1533 245.997 85.2037 245.818 85.3095V85.3095L243.808 86.5136L246.228 89.306L246.676 88.7552C246.774 88.8513 246.881 88.9371 246.996 89.0114L249.121 90.2923L258.698 121.124C258.277 121.522 257.951 122.009 257.745 122.55C257.539 123.092 257.458 123.672 257.508 124.25C257.577 126.057 258.096 127.818 259.018 129.373C258.495 129.754 258.08 130.266 257.815 130.857C257.55 131.447 257.444 132.097 257.508 132.742C257.607 134.564 258.135 136.337 259.047 137.917C259.959 139.497 261.23 140.84 262.757 141.837C263.245 142.128 263.777 142.34 264.332 142.464L264.601 143.322L266.265 142.298C266.463 142.212 266.648 142.1 266.816 141.965V141.965C267.232 141.559 267.554 141.066 267.757 140.521C267.961 139.976 268.042 139.393 267.994 138.814C267.982 137.905 267.836 137.002 267.558 136.136L278.941 142.72C278.628 143.398 278.474 144.139 278.492 144.885C278.593 146.707 279.121 148.479 280.033 150.059C280.945 151.639 282.215 152.982 283.742 153.98C284.269 154.292 284.844 154.513 285.445 154.633L285.56 155.478L287.416 154.364C287.966 153.991 288.404 153.476 288.684 152.874C288.963 152.272 289.074 151.604 289.004 150.944C288.903 149.121 288.374 147.348 287.459 145.767C286.545 144.187 285.272 142.845 283.742 141.849L283.614 141.785L263 129.886L262.783 129.783C262.172 129.384 261.663 128.847 261.299 128.215C260.934 127.583 260.723 126.874 260.683 126.145C260.683 124.864 261.63 124.262 262.783 124.864L283.767 136.982L284.177 138.263L286.059 137.161C286.318 136.963 286.517 136.697 286.635 136.393V136.393ZM283.729 145.359C284.34 145.757 284.849 146.294 285.214 146.926C285.579 147.559 285.79 148.268 285.829 148.997C285.829 150.278 284.894 150.88 283.729 150.278C283.119 149.878 282.611 149.341 282.246 148.709C281.882 148.077 281.67 147.368 281.629 146.64C281.629 145.282 282.577 144.744 283.729 145.41V145.359ZM262.731 133.229C263.342 133.628 263.851 134.165 264.215 134.797C264.58 135.429 264.791 136.138 264.831 136.867C264.831 138.148 263.897 138.75 262.731 138.148C262.121 137.749 261.612 137.211 261.247 136.579C260.883 135.947 260.672 135.238 260.632 134.51C260.632 133.216 261.579 132.614 262.731 133.28V133.229ZM261.682 120.496L255.382 99.912L290.041 119.933L283.729 133.267L261.682 120.496Z" fill="#94F2E9"/>
<path d="M260.696 126.03L281.693 138.16C282.974 138.878 284.087 138.673 284.587 137.622L290.886 124.249C291.084 123.664 291.162 123.045 291.116 122.429C291.069 121.813 290.9 121.212 290.617 120.663C290.086 119.368 289.17 118.268 287.993 117.512L253.346 97.5294C252.841 97.2057 252.239 97.0697 251.644 97.1451L249.531 90.3434C249.291 89.5519 248.778 88.8711 248.084 88.422L244.947 86.6031C244.077 86.1035 243.373 86.5134 243.373 87.5126C243.4 88.0596 243.558 88.5922 243.831 89.0666C244.105 89.5409 244.488 89.9434 244.947 90.2409L247.06 91.5218L256.637 122.354C256.222 122.753 255.9 123.239 255.694 123.777C255.489 124.315 255.404 124.892 255.446 125.466C255.51 127.274 256.029 129.037 256.957 130.59C256.431 130.968 256.014 131.479 255.748 132.071C255.483 132.663 255.379 133.314 255.446 133.959C255.546 135.781 256.073 137.553 256.985 139.133C257.897 140.713 259.168 142.056 260.696 143.053C263.589 144.731 265.945 143.374 265.945 140.03C265.93 139.116 265.779 138.21 265.497 137.34L276.879 143.924C276.572 144.604 276.424 145.344 276.444 146.089C276.544 147.911 277.071 149.684 277.983 151.264C278.895 152.844 280.166 154.187 281.693 155.184C284.587 156.862 286.943 155.504 286.943 152.161C286.842 150.337 286.314 148.563 285.403 146.981C284.491 145.399 283.22 144.054 281.693 143.053H281.552L260.939 131.154L260.734 131.064C260.122 130.663 259.613 130.124 259.249 129.489C258.884 128.855 258.673 128.144 258.634 127.413C258.596 125.902 259.531 125.351 260.696 126.03ZM287.993 121.175L281.693 134.497L259.646 121.688L253.346 101.193L287.993 121.175ZM262.795 138.16C262.795 139.441 261.848 140.043 260.696 139.364C260.083 138.968 259.573 138.431 259.208 137.798C258.843 137.166 258.633 136.456 258.596 135.726C258.596 134.446 259.531 133.844 260.696 134.522C261.306 134.921 261.815 135.459 262.18 136.091C262.544 136.723 262.755 137.432 262.795 138.16V138.16ZM283.793 150.291C283.793 151.571 282.846 152.173 281.693 151.495C281.08 151.098 280.57 150.561 280.205 149.929C279.84 149.296 279.631 148.586 279.593 147.857C279.593 146.576 280.528 145.974 281.693 146.576C282.312 146.985 282.825 147.535 283.19 148.18C283.555 148.826 283.762 149.549 283.793 150.291V150.291Z" fill="white"/>
<path d="M395.785 169.901L384.338 154.851C383.058 153.096 381.291 152.109 379.96 152.289L368.513 154.133C368.279 154.169 368.054 154.247 367.847 154.364V154.364L364.672 156.183V158.834L366.631 157.822V216.924C366.706 218.336 367.114 219.711 367.822 220.935C368.53 222.16 369.517 223.199 370.703 223.969L393.506 237.137V239.148L396.45 237.483C396.846 237.191 397.159 236.801 397.361 236.353C397.563 235.904 397.646 235.411 397.603 234.921V174.948C397.533 173.118 396.898 171.355 395.785 169.901V169.901Z" fill="#8295BB"/>
<path d="M390.663 238.905L367.771 225.686C366.587 224.914 365.602 223.874 364.897 222.65C364.192 221.426 363.786 220.052 363.712 218.641V158.745C363.712 157.144 364.416 156.055 365.581 155.863L377.028 154.031C378.308 153.826 380.075 154.812 381.406 156.593L392.788 171.644C393.924 173.09 394.582 174.854 394.671 176.69V236.586C394.671 239.148 392.853 240.199 390.663 238.905Z" fill="#A0B3D9"/>
<path d="M381.099 168.377C381.12 168.547 381.12 168.719 381.099 168.89C380.881 169.735 380.113 170.03 379.204 169.504C378.636 169.131 378.164 168.629 377.826 168.04C377.488 167.45 377.293 166.789 377.258 166.11C377.258 165.06 377.885 164.534 378.73 164.829C378.894 164.883 379.052 164.952 379.204 165.034C379.756 165.408 380.214 165.904 380.543 166.484C380.871 167.064 381.062 167.712 381.099 168.377V168.377Z" fill="#304F8C"/>
<path d="M381.099 168.377C381.12 168.547 381.12 168.719 381.099 168.89C380.935 168.837 380.776 168.769 380.625 168.685C380.055 168.316 379.58 167.817 379.24 167.229C378.899 166.641 378.703 165.981 378.666 165.303C378.666 165.126 378.688 164.95 378.73 164.778C378.894 164.832 379.052 164.901 379.204 164.983C379.763 165.362 380.225 165.866 380.554 166.455C380.883 167.045 381.07 167.703 381.099 168.377V168.377Z" fill="white"/>
<path d="M99.6799 79.1097C99.5282 76.1861 98.6783 73.3414 97.2014 70.8141C95.7244 68.2867 93.6635 66.1504 91.1912 64.5841C88.8482 63.2391 86.7997 63.047 85.3017 63.7899L85.1736 63.854L85.0328 63.9308L82.933 65.1093L82.6642 67.4021H82.8562C82.7296 68.0434 82.6653 68.6954 82.6642 69.3491C82.8261 72.2696 83.6847 75.1088 85.1682 77.6293C86.6517 80.1498 88.717 82.2781 91.1912 83.8363C92.2813 84.5107 93.5128 84.9229 94.789 85.0404L94.6226 85.9627L97.1832 84.5537H97.2601C98.7453 83.593 99.6799 81.7356 99.6799 79.1097ZM91.1528 77.3036C90.3832 76.8015 89.7477 76.119 89.3014 75.3154C88.8552 74.5118 88.6117 73.6114 88.5922 72.6923C88.5922 70.9247 89.6676 70.1305 91.1528 71.0784C91.9395 71.5749 92.5917 72.2578 93.0518 73.0665C93.5118 73.8753 93.7655 74.7851 93.7903 75.7153C93.7903 77.3549 92.7149 78.2131 91.1528 77.3036Z" fill="#8295BB"/>
<path d="M73.7018 51.8774C74.8577 52.6017 76.1804 53.0163 77.5428 53.0814L77.6196 53.7731L79.7066 52.5947L79.8474 52.5178H79.9371C81.3582 51.6084 82.2033 49.7767 82.2033 47.2148C82.0764 44.2869 81.2383 41.4339 79.7615 38.903C78.2846 36.372 76.2135 34.2392 73.7274 32.6892C71.4356 31.4082 69.4383 31.1521 67.9531 31.8309L67.7994 31.9078L67.4921 32.0743L65.4436 33.2143L65.5844 34.5849C65.2938 35.4912 65.1511 36.4384 65.1619 37.3901C65.3252 40.3118 66.1858 43.1518 67.6716 45.6723C69.1574 48.1929 71.2252 50.3206 73.7018 51.8774V51.8774ZM73.7018 39.0682C74.4877 39.5655 75.1393 40.2486 75.5992 41.0572C76.0592 41.8658 76.3133 42.7751 76.3393 43.7051C76.3393 45.3575 75.2638 46.2669 73.7018 45.2934C72.9314 44.7921 72.2952 44.1098 71.8489 43.306C71.4026 42.5022 71.1596 41.6014 71.1411 40.6821C71.0515 38.9657 72.127 38.2227 73.6506 39.1066L73.7018 39.0682Z" fill="#8295BB"/>
<path d="M91.3961 48.7391L89.2451 49.9432L89.386 50.1353L69.2334 64.2511L71.666 67.3125L70.3217 69.5413L72.4727 68.3244L94.6226 52.7484L91.3961 48.7391Z" fill="#8295BB"/>
<path d="M63.0109 38.5302C63.0109 33.2143 66.6471 30.9984 71.538 33.8292C74.025 35.3794 76.0975 37.5119 77.5764 40.0426C79.0553 42.5734 79.8963 45.4262 80.0267 48.3548C80.0267 53.6835 76.3905 55.8867 71.538 53.0943C69.055 51.527 66.9844 49.3862 65.5006 46.8517C64.0167 44.3173 63.1629 41.4634 63.0109 38.5302ZM89.2451 49.956L92.4716 53.9781L70.3217 69.5413L67.0824 65.468L89.2451 49.956ZM74.1371 44.9604C74.1122 44.0302 73.8585 43.1204 73.3985 42.3116C72.9385 41.5029 72.2863 40.82 71.4996 40.3235C69.976 39.4396 68.9389 40.1826 68.9389 41.9374C68.9585 42.8565 69.2019 43.7569 69.6482 44.5605C70.0944 45.3641 70.7299 46.0466 71.4996 46.5487C73.0616 47.4582 74.1371 46.6 74.1371 44.9604ZM80.5388 70.502C80.5388 65.1733 84.1622 62.9702 89.0659 65.801C91.5396 67.3657 93.6016 69.5017 95.0788 72.0294C96.5559 74.557 97.405 77.4025 97.5545 80.3267C97.5545 85.6553 93.9184 87.8585 89.0659 85.0533C86.5693 83.4893 84.4877 81.3446 82.9984 78.802C81.5092 76.2594 80.6566 73.3942 80.5132 70.4507L80.5388 70.502ZM91.665 76.9066C91.6397 75.9732 91.3846 75.0605 90.9222 74.2494C90.4599 73.4383 89.8047 72.7539 89.0147 72.2568C87.5039 71.3858 86.454 72.1159 86.454 73.8708C86.4758 74.7912 86.7202 75.6925 87.1661 76.4978C87.6121 77.3031 88.2463 77.9883 89.0147 78.4949C90.5639 79.4172 91.6394 78.5718 91.6394 76.9322L91.665 76.9066Z" fill="#A0B3D9"/>
<path d="M120.934 331.067L93.5343 346.887L4.60176 295.522L32.0011 279.702" stroke="#304F8C" stroke-width="0.95" stroke-linecap="round" stroke-linejoin="round"/>
<path d="M35.5476 281.867C34.3884 282.46 33.1048 282.77 31.8026 282.77C30.5004 282.77 29.2168 282.46 28.0576 281.867C25.9835 280.676 25.9835 278.729 28.0576 277.537C29.2168 276.944 30.5004 276.634 31.8026 276.634C33.1048 276.634 34.3884 276.944 35.5476 277.537C37.6218 278.729 37.6218 280.676 35.5476 281.867Z" fill="#304F8C"/>
<path d="M157.641 249.152C156.48 249.746 155.194 250.055 153.89 250.055C152.585 250.055 151.3 249.746 150.138 249.152C148.077 247.961 148.077 246.014 150.138 244.823C151.301 244.235 152.586 243.929 153.89 243.929C155.193 243.929 156.478 244.235 157.641 244.823C159.651 246.014 159.651 247.961 157.641 249.152Z" fill="#304F8C"/>
<path d="M90.295 175.486C89.1335 176.08 87.8479 176.39 86.5436 176.39C85.2393 176.39 83.9537 176.08 82.7922 175.486C80.7309 174.295 80.7181 172.348 82.7922 171.157C83.9555 170.569 85.2404 170.263 86.5436 170.263C87.8468 170.263 89.1317 170.569 90.295 171.157C92.3435 172.386 92.3435 174.334 90.295 175.486Z" fill="#304F8C"/>
<path d="M149.78 171.708C148.62 172.301 147.337 172.611 146.035 172.611C144.732 172.611 143.449 172.301 142.29 171.708C140.216 170.516 140.216 168.569 142.29 167.378C143.451 166.791 144.734 166.484 146.035 166.484C147.336 166.484 148.619 166.791 149.78 167.378C151.854 168.569 151.854 170.516 149.78 171.708Z" fill="#304F8C"/>
<path d="M124.672 333.27C123.511 333.858 122.228 334.164 120.927 334.164C119.626 334.164 118.343 333.858 117.182 333.27C115.108 332.066 115.108 330.132 117.182 328.928C118.343 328.34 119.626 328.034 120.927 328.034C122.228 328.034 123.511 328.34 124.672 328.928C126.746 330.132 126.746 332.066 124.672 333.27Z" fill="#304F8C"/>
<path d="M296.75 329.351C295.589 329.944 294.303 330.254 292.999 330.254C291.694 330.254 290.409 329.944 289.247 329.351C287.173 328.159 287.173 326.212 289.247 325.021C290.411 324.434 291.695 324.127 292.999 324.127C294.302 324.127 295.587 324.434 296.75 325.021C298.824 326.212 298.824 328.159 296.75 329.351Z" fill="#304F8C"/>
<path d="M153.608 247.115L37.1992 314.351" stroke="#304F8C" stroke-width="0.95" stroke-linecap="round" stroke-linejoin="round"/>
<path d="M86.2875 173.411L56.5196 190.601" stroke="#304F8C" stroke-width="0.95" stroke-linecap="round" stroke-linejoin="round"/>
<path d="M146.156 169.722L83.6884 205.793" stroke="#304F8C" stroke-width="0.95" stroke-linecap="round" stroke-linejoin="round"/>
<path d="M154.35 247.103L292.999 327.186" stroke="#304F8C" stroke-width="0.95" stroke-linecap="round" stroke-linejoin="round"/>
<path d="M56.5196 190.601L195.168 270.672" stroke="#304F8C" stroke-width="0.95" stroke-linecap="round" stroke-linejoin="round"/>
<g style="mix-blend-mode:multiply">
<g style="mix-blend-mode:multiply">
<path d="M409.33 264.369C409.33 260.181 403.799 257.03 396.399 257.03C388.999 257.03 383.404 260.309 383.404 264.369C383.404 268.43 388.935 271.696 396.399 271.696C403.863 271.696 409.33 268.417 409.33 264.369ZM392.366 264.369C392.366 263.089 394.005 261.987 396.322 261.987C398.64 261.987 400.355 263.024 400.355 264.369C400.355 265.714 398.716 266.739 396.322 266.739C393.928 266.739 392.366 265.702 392.366 264.369Z" fill="#F0E6FE"/>
</g>
<g style="mix-blend-mode:multiply">
<path d="M423.069 273.682C415.604 273.682 410.073 276.961 410.073 281.021C410.073 285.082 415.604 288.361 423.069 288.361C430.533 288.361 436 285.082 436 281.021C436 276.961 430.469 273.682 423.069 273.682ZM422.992 283.391C420.687 283.391 419.035 282.366 419.035 281.021C419.035 279.676 420.687 278.652 422.992 278.652C425.296 278.652 427.038 279.689 427.038 281.021C427.038 282.354 425.386 283.391 422.992 283.391Z" fill="#F0E6FE"/>
</g>
<g style="mix-blend-mode:multiply">
<path d="M423.376 261.513L389.6 283.096L390.74 285.056L394.53 284.774L428.305 263.153L423.376 261.513Z" fill="#F0E6FE"/>
</g>
</g>
<path d="M392.609 271.978C400.01 271.978 405.541 268.699 405.541 264.651V261.539H404.401C402.417 258.977 397.999 257.312 392.609 257.312C387.219 257.312 382.802 259.041 380.792 261.539H379.614V264.651C379.614 268.699 385.145 271.978 392.609 271.978ZM392.532 262.269C394.927 262.269 396.578 263.306 396.578 264.651C396.578 265.996 394.927 267.021 392.532 267.021C390.138 267.021 388.576 265.983 388.576 264.651C388.576 263.319 390.228 262.269 392.532 262.269Z" fill="#8295BB"/>
<path d="M424.515 263.434H424.503H424.515V260.335H417.281V263.268L390.663 280.279H385.811V283.378H385.823L390.74 285.056L424.515 263.434Z" fill="#8295BB"/>
<path d="M432.21 278.203H431.019C429.022 275.706 424.618 273.964 419.279 273.964C413.94 273.964 409.471 275.706 407.474 278.203H406.283V281.303C406.283 285.364 411.814 288.643 419.279 288.643C426.743 288.643 432.21 285.364 432.21 281.303V278.203ZM419.215 283.673C416.897 283.673 415.246 282.648 415.246 281.303C415.246 279.958 416.897 278.934 419.215 278.934C421.532 278.934 423.248 279.971 423.248 281.303C423.248 282.635 421.596 283.673 419.215 283.673Z" fill="#8295BB"/>
<path d="M379.614 261.539C379.614 257.491 385.145 254.212 392.609 254.212C400.074 254.212 405.541 257.363 405.541 261.539C405.541 265.714 400.01 268.878 392.609 268.878C385.209 268.878 379.614 265.599 379.614 261.539ZM419.586 258.746L424.515 260.386L390.74 282.008L385.811 280.317L419.586 258.746ZM396.54 261.59C396.54 260.309 394.888 259.22 392.494 259.22C390.1 259.22 388.538 260.258 388.538 261.59C388.538 262.922 390.189 263.972 392.494 263.972C394.799 263.972 396.578 262.794 396.578 261.539L396.54 261.59ZM406.245 278.242C406.245 274.181 411.776 270.902 419.24 270.902C426.705 270.902 432.172 274.181 432.172 278.242C432.172 282.302 426.641 285.569 419.24 285.569C411.84 285.569 406.283 282.251 406.283 278.203L406.245 278.242ZM423.209 278.242C423.209 276.897 421.558 275.859 419.176 275.859C416.795 275.859 415.207 276.897 415.207 278.242C415.207 279.587 416.859 280.612 419.176 280.612C421.494 280.612 423.248 279.446 423.248 278.203L423.209 278.242Z" fill="#A0B3D9"/>
</g>
<defs>
<filter id="filter0_dd_102_38" x="0" y="0" width="440" height="357" filterUnits="userSpaceOnUse" color-interpolation-filters="sRGB">
<feFlood flood-opacity="0" result="BackgroundImageFix"/>
<feColorMatrix in="SourceAlpha" type="matrix" values="0 0 0 0 0 0 0 0 0 0 0 0 0 0 0 0 0 0 127 0" result="hardAlpha"/>
<feOffset dy="4"/>
<feGaussianBlur stdDeviation="2"/>
<feComposite in2="hardAlpha" operator="out"/>
<feColorMatrix type="matrix" values="0 0 0 0 0 0 0 0 0 0 0 0 0 0 0 0 0 0 0.25 0"/>
<feBlend mode="normal" in2="BackgroundImageFix" result="effect1_dropShadow_102_38"/>
<feColorMatrix in="SourceAlpha" type="matrix" values="0 0 0 0 0 0 0 0 0 0 0 0 0 0 0 0 0 0 127 0" result="hardAlpha"/>
<feOffset dy="4"/>
<feGaussianBlur stdDeviation="2"/>
<feComposite in2="hardAlpha" operator="out"/>
<feColorMatrix type="matrix" values="0 0 0 0 0 0 0 0 0 0 0 0 0 0 0 0 0 0 0.25 0"/>
<feBlend mode="normal" in2="effect1_dropShadow_102_38" result="effect2_dropShadow_102_38"/>
<feBlend mode="normal" in="SourceGraphic" in2="effect2_dropShadow_102_38" result="shape"/>
</filter>
<clipPath id="clip0_102_38">
<rect width="432" height="349" fill="white" transform="translate(4)"/>
</clipPath>
</defs>
</svg>
